<svg width="112" height="138" viewBox="0 0 112 138" fill="none" xmlns="http://www.w3.org/2000/svg">
<ellipse cx="56" cy="135" rx="30" ry="3" fill="#101010"/>
<path d="M95.5982 95.4592L56 135L16.4018 95.4592C8.57013 87.6387 3.23671 77.675 1.076 66.8278C-1.08472 55.9806 0.0243092 44.7373 4.26284 34.5195C8.50136 24.3017 15.679 15.5684 24.8882 9.42397C34.0973 3.27956 44.9243 0 56 0C67.0757 0 77.9027 3.27956 87.1118 9.42397C96.321 15.5684 103.499 24.3017 107.737 34.5195C111.976 44.7373 113.085 55.9806 110.924 66.8278C108.763 77.675 103.43 87.6387 95.5982 95.4592Z" fill="#F57520"/>
<path d="M94.184 94.6308L56 133L17.816 94.6308C10.2641 87.0421 5.12112 77.3735 3.03757 66.8477C0.954023 56.3219 2.02344 45.4117 6.11059 35.4967C10.1977 25.5816 17.1191 17.1071 25.9993 11.1447C34.8795 5.18239 45.3198 2 56 2C66.6802 2 77.1205 5.18239 86.0007 11.1447C94.8809 17.1071 101.802 25.5816 105.889 35.4967C109.977 45.4117 111.046 56.3219 108.962 66.8477C106.879 77.3735 101.736 87.0421 94.184 94.6308Z" fill="#101010"/>
</svg>
